<svg xmlns="http://www.w3.org/2000/svg" id="Capa_1" viewBox="0 0 240 240"><defs><linearGradient id="Degradado_sin_nombre" x1="121.5" x2="121.5" y1="1806.2" y2="1564" data-name="Degradado sin nombre" gradientTransform="translate(0 -1564)" gradientUnits="userSpaceOnUse"><stop offset="0" stop-color="#fff" stop-opacity="0"/><stop offset=".8" stop-color="#fff"/></linearGradient><style>.st0{fill:#bfb0ab}.st4{fill:#d2d2f1}.st5{fill:#4467cc}</style></defs><path d="M120.5 240.1c66.3 0 120-53.7 120-120S186.8 0 120.5 0 .5 53.8.5 120.1s53.7 120 120 120" style="fill:#f1f1ec"/><path d="M143.8 242.2H99.3L52.7 0h137.6l-46.5 242.1Z" style="fill:url(#Degradado_sin_nombre);isolation:isolate;opacity:.7"/><path d="M147.4 158.8H95.9l4.9-31.3h41.6l4.9 31.3z" class="st5"/><path d="M121.7 41.3S91.5 77.4 91.4 77.4H152z" class="st4"/><path d="M122.2 120.3c13.8-.4 24.7-8.6 24.4-18.3s-11.7-17.2-25.5-16.8-24.7 8.6-24.4 18.3 11.7 17.2 25.5 16.8" class="st0"/><path d="M122 34.5v140" style="fill:none;stroke:#000;stroke-linecap:round;stroke-miterlimit:10;stroke-width:1.5px"/><path d="M126.5 57.9h-2.1v2.2c0 .7-.2 1.4-.6 2-.2.2-.4.4-.7.6 0 0 0 .2-.2.3s-.2.2-.4.2h-1.3c-.2 0-.3-.2-.4-.3-.3 0-.6-.2-.7-.4-.6-.6-1-1.2-1.1-2.1V58h-1.2L115 77.4h11.9l-.6-19.4h.2Z" class="st4"/><path d="M141.2 139.9h-.3c-1.4.2-2.9.2-4.3 0 0 .5-.5 1-1.1 1-4.1.4-8.3.6-12.5.5 0 .2 0 .3-.2.4 0 .1-.2.2-.4.3 0 0-.3.1-.5.1h-1.1s-.2-.1-.3-.2c-.2-.1-.3-.3-.4-.5v-.2c-1.5 0-3.1-.1-4.6-.3-.8 0-1.2-.8-1-1.5-.6 0-1.3-.1-1.9-.2-.6 0-1-.5-1-.9h-.4c-2.5.1-5.1.2-7.6.2s-.5 0-.7-.2h-1.7c-.3 0-.6 0-.7-.2h-1.2l-3.3 20h51l-3.1-18.4c-.9 0-1.8-.2-2.7-.2z" class="st5"/><path d="M120.6 194.6c0-.6 0-1.2.4-1.6.3-.4.7-.9 1.3-1.5s.9-.8 1.1-1.2q.3-.45.3-1.2c0-.75-.2-1.1-.6-1.5s-1-.6-1.7-.6-1.2.2-1.6.5c-.4.4-.7.8-.9 1.3l-1.6-.6c.3-.7.8-1.4 1.4-1.9.7-.6 1.5-.8 2.6-.8s1.5.2 2.1.5 1.1.7 1.4 1.3c.3.5.5 1.1.5 1.8s-.2 1.3-.5 1.8c-.4.5-.8 1-1.4 1.5-.4.4-.7.7-.9 1.1q-.3.45-.3 1.2v.8h-1.7v-.9Zm0 4.7c-.2-.2-.4-.5-.4-.9s0-.6.4-.8q.3-.3.9-.3c.6 0 .7.1.9.3s.4.5.4.8 0 .6-.4.9q-.3.3-.9.3c-.6 0-.6-.1-.9-.3"/><path d="M138.3 90.5c.5.8.1 2.1-1 2.1h-1.6c0 .6-.5 1-1.2 1.1h-5v.4c0 .6-.3 1.1-.9 1.4.5.8.1 2.1-1 2.2h-.6c0 .2-.3.4-.6.5v.2c0 .7-.5 1.5-1.3 1.5h-1.6v.3c0 .2 0 .3-.2.4v.3c0 .3 0 .6-.2.8 0 .2-.2.3-.3.4 0 0-.3.2-.5.3h-1.6s-.2 0-.3-.2c-.2-.2-.3-.4-.4-.6v-1.5h-1.2c-.8 0-1.3-.5-1.4-1.1 0 0-.2 0-.3-.2-.6 0-1-.8-.9-1.4 0-.7.6-1.2 1.2-1.3h.6s-.2-.2-.3-.4c-.5-.3-.9-.6-1-1.3v-.8c-3.2 0-6.4.2-9.6-.3-.2 0-.4 0-.5-.2h-2.5c-.8 0-1.2-.4-1.4-1-3.4 3-5.4 6.7-5.4 10.8 0 9.6 11 17.3 24.6 17.3s21.5-7.6 21.5-17.2-7.3-7.5-5-12.9v.3Z" class="st0"/></svg>