<svg xmlns="http://www.w3.org/2000/svg" fill="none" viewBox="0 0 240 240"><path fill="#f1f1ec" d="m135.621 209.398-9.59-18.5-4.5 11.5 3.5 5z"/><path fill="#f1f1ec" d="M120 240c66.27 0 120-53.73 120-120S186.28 0 120 0 0 53.73 0 120s53.73 120 120 120"/><mask id="a" width="240" height="240" x="0" y="0" maskUnits="userSpaceOnUse" style="mask-type:luminance"><path fill="#fff" d="M120 240c66.27 0 120-53.73 120-120S186.28 0 120 0 0 53.73 0 120s53.73 120 120 120"/></mask><g mask="url(#a)"><path fill="#f1f1ec" d="m126.4 114.416-7-13.5-4.5 11.5 3.5 5zM129.4 132.416l-7-13.5-4.5 11.5 3.5 5z"/><path fill="#f1f1ec" stroke="#000" stroke-linecap="round" stroke-linejoin="round" stroke-width="1.5" d="m118.29 76.706-49.04 73.58 27.63 16.6z"/><path fill="#f1f1ec" stroke="#000" stroke-linecap="round" stroke-linejoin="round" stroke-width="1.5" d="m96.88 166.886 72.18-6.45-50.77-83.73z"/><path fill="url(#b)" d="M-30.18 99.216h137.83l-19.7 45.17H-30.18z" opacity=".89"/><path fill="#d2d2f1" d="M5.98 122.066c-.14 0-8 12.89-7.74 12.83s14.84 0 14.84 0z"/><path fill="#bfb0ab" d="M63.3 135.626c3.39 0 6.14-2.75 6.14-6.14s-2.75-6.14-6.14-6.14-6.14 2.75-6.14 6.14 2.75 6.14 6.14 6.14M29.99 133.886c3.39 0 6.14-2.75 6.14-6.14s-2.75-6.14-6.14-6.14-6.14 2.75-6.14 6.14 2.75 6.14 6.14 6.14M67.95 119.046c3.39 0 6.14-2.75 6.14-6.14s-2.75-6.14-6.14-6.14-6.14 2.75-6.14 6.14 2.75 6.14 6.14 6.14M17.53 121.876c3.39 0 6.14-2.75 6.14-6.14s-2.75-6.14-6.14-6.14-6.14 2.75-6.14 6.14 2.75 6.14 6.14 6.14M17.53 140.766c3.39 0 6.14-2.75 6.14-6.14s-2.75-6.14-6.14-6.14-6.14 2.75-6.14 6.14 2.75 6.14 6.14 6.14"/><path fill="#d2d2f1" d="M51.57 108.486c-.14 0-8 12.89-7.74 12.83s14.84 0 14.84 0zM72.17 123.836c-.14 0-8 12.89-7.74 12.83s14.84 0 14.84 0zM82.67 108.486c-.14 0-8 12.89-7.74 12.83s14.84 0 14.84 0z"/><path fill="#3e65d0" d="M42.906 107.071h-11v11h11zM52.464 125.86h-11v11h11zM5.896 109.122h-11v11h11z"/><path fill="#bfb0ab" d="M90.11 136.396c3.39 0 6.14-2.75 6.14-6.14s-2.75-6.14-6.14-6.14-6.14 2.75-6.14 6.14 2.75 6.14 6.14 6.14"/><path fill="#3e65d0" d="M104.326 107.071h-11v11h11z"/><path fill="#f1f1ec" d="m111.58 96.776-3.48 1.35-21.18 49.09 16.59-22.24 8.07-28.21z"/><path fill="url(#c)" d="m264.849 48.248-140.241 65.995-1.226-21.763 128.946-70.546z"/><path fill="#c1b1ac" d="M228.807 57.815a6.152 6.152 0 0 1-9.651-4.006c-.356-2.021.795-4.805 2.482-5.984a6.15 6.15 0 0 1 9.65 4.006c.357 2.02-.795 4.804-2.481 5.984M212.367 66.062c-3.687 2.36-8.446.388-9.385-3.893-.488-2.214.71-5.101 2.625-6.316 3.687-2.36 8.446-.388 9.385 3.893.488 2.214-.71 5.102-2.625 6.316M195.927 74.313c-3.596 2.11-8.06.257-9.109-3.778-.62-2.408.616-5.4 2.76-6.66 3.597-2.11 8.061-.256 9.11 3.779.619 2.407-.616 5.4-2.761 6.659M179.486 82.562c-3.49 1.885-7.708.14-8.835-3.664-.772-2.593.524-5.708 2.906-7 3.49-1.885 7.708-.14 8.835 3.663.772 2.594-.524 5.71-2.906 7M163.047 90.813c-3.376 1.68-7.365.023-8.569-3.55-.934-2.782.414-6.04 3.042-7.344 3.376-1.68 7.365-.023 8.568 3.55.935 2.782-.414 6.04-3.041 7.344M146.614 99.072a6.12 6.12 0 0 1-8.293-3.436c-1.108-2.96.305-6.371 3.187-7.684a6.12 6.12 0 0 1 8.293 3.435c1.109 2.961-.305 6.371-3.187 7.685M127.274 107.756a6.14 6.14 0 1 0 1.108-12.23 6.14 6.14 0 1 0-1.108 12.23"/><path fill="url(#d)" d="m255.505 196.478-144.541-55.955 14.905-15.905 140.039 44.64z"/><path fill="url(#e)" d="m315.133 219.98-144.54-55.955-3.757-23.97 158.701 52.704z" opacity=".9"/><path fill="#3e65d0" d="m141.835 135.768-10.524-3.201-3.201 10.524 10.524 3.201zM160.224 142.538l-10.524-3.201-3.201 10.524 10.524 3.201zM177.655 148.588l-10.524-3.201-3.201 10.524 10.524 3.201zM194.838 154.758l-10.524-3.201-3.201 10.524 10.524 3.201zM212.277 160.809l-10.524-3.201-3.201 10.524 10.524 3.201zM229.699 166.831l-10.524-3.201-3.2 10.524 10.524 3.201z"/><path fill="url(#f)" d="m273.311 131.594-154.984-1.689 8.377-20.123 146.799-7.329z"/><path fill="#d2d3f3" d="M132.306 114.424c-.13 0-7.79 12.55-7.54 12.49s14.45 0 14.45 0zM151.825 113.919c-.127-.03-10.54 10.432-10.285 10.441s14.11 3.38 14.11 3.38zM169.917 113.227c-.126-.03-10.593 10.48-10.326 10.483.267.002 14.179 3.396 14.179 3.396l-3.843-13.877zM187.995 112.537c-.127-.03-10.637 10.532-10.38 10.532.258 0 14.238 3.41 14.238 3.41l-3.868-13.945zM206.083 111.841c-.127-.031-10.687 10.571-10.423 10.583.265.012 14.306 3.427 14.306 3.427zM224.172 111.151c-.127-.031-10.73 10.622-10.473 10.622s14.364 3.441 14.364 3.441l-3.901-14.066zM242.25 110.459c-.126-.031-10.782 10.671-10.516 10.674.267.002 14.432 3.457 14.432 3.457z"/><path fill="#f1f1ec" d="M118.55 87.916c4.286 0 20.286 74.26 20.286 74.26H104.74l12.68-75.11 1.13.84z"/></g><defs><linearGradient id="b" x1="38.73" x2="38.73" y1="144.386" y2="99.216" gradientUnits="userSpaceOnUse"><stop offset=".04" stop-color="#fff" stop-opacity="0"/><stop offset=".18" stop-color="#fff"/><stop offset=".476" stop-color="#fff"/><stop offset=".813" stop-color="#fff"/><stop offset=".93" stop-color="#fff" stop-opacity=".05"/><stop offset="1" stop-color="#fff" stop-opacity="0"/></linearGradient><linearGradient id="c" x1="194.533" x2="181.939" y1="81.372" y2="57.66" gradientUnits="userSpaceOnUse"><stop stop-color="#fff" stop-opacity="0"/><stop offset=".01" stop-color="#fff" stop-opacity=".06"/><stop offset=".05" stop-color="#fff" stop-opacity=".25"/><stop offset=".1" stop-color="#fff" stop-opacity=".41"/><stop offset=".14" stop-color="#fff" stop-opacity=".55"/><stop offset=".19" stop-color="#fff" stop-opacity=".67"/><stop offset=".24" stop-color="#fff" stop-opacity=".76"/><stop offset=".29" stop-color="#fff" stop-opacity=".82"/><stop offset=".35" stop-color="#fff" stop-opacity=".86"/><stop offset=".44" stop-color="#fff" stop-opacity=".87"/><stop offset=".52" stop-color="#fff" stop-opacity=".86"/><stop offset=".58" stop-color="#fff" stop-opacity=".82"/><stop offset=".64" stop-color="#fff" stop-opacity=".76"/><stop offset=".69" stop-color="#fff" stop-opacity=".67"/><stop offset=".74" stop-color="#fff" stop-opacity=".56"/><stop offset=".78" stop-color="#fff" stop-opacity=".42"/><stop offset=".82" stop-color="#fff" stop-opacity=".26"/><stop offset=".86" stop-color="#fff" stop-opacity=".07"/><stop offset=".88" stop-color="#fff" stop-opacity="0"/></linearGradient><linearGradient id="d" x1="183.008" x2="191.478" y1="168.447" y2="142.969" gradientUnits="userSpaceOnUse"><stop stop-color="#fff" stop-opacity="0"/><stop offset=".01" stop-color="#fff" stop-opacity=".06"/><stop offset=".05" stop-color="#fff" stop-opacity=".25"/><stop offset=".1" stop-color="#fff" stop-opacity=".41"/><stop offset=".14" stop-color="#fff" stop-opacity=".55"/><stop offset=".19" stop-color="#fff" stop-opacity=".67"/><stop offset=".24" stop-color="#fff" stop-opacity=".76"/><stop offset=".29" stop-color="#fff" stop-opacity=".82"/><stop offset=".35" stop-color="#fff" stop-opacity=".86"/><stop offset=".44" stop-color="#fff" stop-opacity=".87"/><stop offset=".52" stop-color="#fff" stop-opacity=".86"/><stop offset=".58" stop-color="#fff" stop-opacity=".82"/><stop offset=".64" stop-color="#fff" stop-opacity=".76"/><stop offset=".69" stop-color="#fff" stop-opacity=".67"/><stop offset=".74" stop-color="#fff" stop-opacity=".56"/><stop offset=".78" stop-color="#fff" stop-opacity=".42"/><stop offset=".82" stop-color="#fff" stop-opacity=".26"/><stop offset=".86" stop-color="#fff" stop-opacity=".07"/><stop offset=".88" stop-color="#fff" stop-opacity="0"/></linearGradient><linearGradient id="e" x1="236.002" x2="244.472" y1="187.445" y2="161.968" gradientUnits="userSpaceOnUse"><stop stop-color="#fff" stop-opacity="0"/><stop offset=".01" stop-color="#fff" stop-opacity=".06"/><stop offset=".05" stop-color="#fff" stop-opacity=".25"/><stop offset=".1" stop-color="#fff" stop-opacity=".41"/><stop offset=".14" stop-color="#fff" stop-opacity=".55"/><stop offset=".19" stop-color="#fff" stop-opacity=".67"/><stop offset=".24" stop-color="#fff" stop-opacity=".76"/><stop offset=".29" stop-color="#fff" stop-opacity=".82"/><stop offset=".35" stop-color="#fff" stop-opacity=".86"/><stop offset=".44" stop-color="#fff" stop-opacity=".87"/><stop offset=".52" stop-color="#fff" stop-opacity=".86"/><stop offset=".58" stop-color="#fff" stop-opacity=".82"/><stop offset=".64" stop-color="#fff" stop-opacity=".76"/><stop offset=".69" stop-color="#fff" stop-opacity=".67"/><stop offset=".74" stop-color="#fff" stop-opacity=".56"/><stop offset=".78" stop-color="#fff" stop-opacity=".42"/><stop offset=".82" stop-color="#fff" stop-opacity=".26"/><stop offset=".86" stop-color="#fff" stop-opacity=".07"/><stop offset=".88" stop-color="#fff" stop-opacity="0"/></linearGradient><linearGradient id="f" x1="195.588" x2="194.581" y1="130.778" y2="103.949" gradientUnits="userSpaceOnUse"><stop stop-color="#fff" stop-opacity="0"/><stop offset=".01" stop-color="#fff" stop-opacity=".06"/><stop offset=".05" stop-color="#fff" stop-opacity=".25"/><stop offset=".1" stop-color="#fff" stop-opacity=".41"/><stop offset=".14" stop-color="#fff" stop-opacity=".55"/><stop offset=".19" stop-color="#fff" stop-opacity=".67"/><stop offset=".24" stop-color="#fff" stop-opacity=".76"/><stop offset=".29" stop-color="#fff" stop-opacity=".82"/><stop offset=".35" stop-color="#fff" stop-opacity=".86"/><stop offset=".44" stop-color="#fff" stop-opacity=".87"/><stop offset=".52" stop-color="#fff" stop-opacity=".86"/><stop offset=".58" stop-color="#fff" stop-opacity=".82"/><stop offset=".64" stop-color="#fff" stop-opacity=".76"/><stop offset=".69" stop-color="#fff" stop-opacity=".67"/><stop offset=".74" stop-color="#fff" stop-opacity=".56"/><stop offset=".78" stop-color="#fff" stop-opacity=".42"/><stop offset=".82" stop-color="#fff" stop-opacity=".26"/><stop offset=".86" stop-color="#fff" stop-opacity=".07"/><stop offset=".88" stop-color="#fff" stop-opacity="0"/></linearGradient></defs></svg>