<svg width="173" height="173" viewBox="0 0 173 173" fill="none" xmlns="http://www.w3.org/2000/svg">
  <style>
    path {
      fill: #6e6e6e;
    }
    @media (prefers-color-scheme: dark) {
      path {
        fill: #f2f2ed;
      }
    }
  </style>
  <path d="M86.5 0C134.272 0.000121549 173 38.7275 173 86.5C173 134.273 134.273 173 86.5 173C38.7275 173 0.000118562 134.272 0 86.5C0.000225751 38.7276 38.7276 0.00022878 86.5 0ZM86.5 12.415C45.5841 12.4153 12.4153 45.5841 12.415 86.5C12.4152 127.416 45.5841 160.586 86.5 160.586C127.416 160.586 160.586 127.416 160.586 86.5C160.586 45.5841 127.416 12.4152 86.5 12.415Z" />
  <path d="M76.0696 54.7341H106.347V95.8434C106.347 103.118 104.383 109.252 100.662 113.559C97.7528 116.936 93.6607 119.039 88.6762 119.778C83.7777 120.339 80.4855 119.791 80.4855 119.791C75.6399 119.112 71.8122 117.166 68.9233 113.968H68.9167L68.216 113.156C64.7652 108.889 62.9406 102.9 62.9406 95.8434V94.6298H49.5869V95.85C49.5869 103.039 51.0611 109.503 53.9632 115.056C56.8653 120.609 61.0367 125.022 66.3716 128.148C70.7148 130.687 75.2763 132.138 80.4789 132.626C80.4789 132.626 83.2753 133.009 88.6696 132.626C94.0508 132.131 99.0287 130.667 103.226 128.214C108.508 125.127 112.594 120.715 115.39 115.095C118.154 109.529 119.562 103.039 119.562 95.8434V42.5061H76.0696V54.7341Z" />
</svg>
