<svg id="jigsaw-sensemaking-logo" viewBox="0 0 280.23 25" fill="none" xmlns="http://www.w3.org/2000/svg">
<path d="M43.36,8.74v2.54h6.18c-.08.66-.26,1.27-.52,1.83-.26.56-.58,1.03-.95,1.4-.58.54-1.23.97-1.96,1.3-.73.32-1.64.48-2.72.48-1.19,0-2.29-.28-3.31-.84-1.02-.56-1.83-1.35-2.44-2.39-.61-1.03-.92-2.22-.92-3.56s.31-2.52.92-3.56c.61-1.03,1.42-1.83,2.44-2.39,1.02-.56,2.11-.84,3.28-.84,1,0,1.91.18,2.73.53.82.36,1.53.86,2.12,1.52l1.98-1.98c-.8-.88-1.79-1.57-2.98-2.06C46.04.25,44.76,0,43.39,0c-1.73,0-3.32.42-4.78,1.24-1.46.83-2.62,1.97-3.47,3.42-.86,1.45-1.28,3.06-1.28,4.84s.43,3.39,1.28,4.84c.86,1.45,2.01,2.59,3.47,3.42,1.46.83,3.05,1.24,4.78,1.24,2.78,0,5.03-.9,6.74-2.72.78-.78,1.35-1.7,1.7-2.76.36-1.06.53-2.16.53-3.31,0-.51-.04-1-.13-1.47h-8.87,0Z" fill="currentColor"/>
<path d="M63.14,8.02l-1.21-.38c-1.15-.37-1.99-.76-2.52-1.17-.54-.41-.81-.92-.81-1.55,0-.66.3-1.2.9-1.63.6-.42,1.34-.63,2.22-.63s1.59.22,2.15.66c.55.44.93.95,1.13,1.52l2.71-1.09c-.34-.97-1.01-1.83-2.01-2.6-1-.77-2.35-1.16-4.03-1.16-1.16,0-2.21.22-3.13.67-.92.45-1.64,1.05-2.16,1.82-.52.76-.78,1.59-.78,2.49,0,1.3.44,2.35,1.32,3.15.88.8,1.96,1.41,3.25,1.83l1.21.41c1.45.49,2.47.98,3.05,1.46.58.48.87,1.1.87,1.84,0,.81-.33,1.45-.99,1.92-.66.47-1.47.7-2.42.7-1.02,0-1.89-.32-2.62-.95-.73-.63-1.23-1.45-1.52-2.45l-2.85,1.09c.48,1.59,1.36,2.83,2.63,3.71,1.27.88,2.7,1.32,4.3,1.32,1.06,0,2.08-.2,3.07-.58.99-.39,1.81-.99,2.46-1.79.64-.8.97-1.8.97-2.98,0-1.46-.45-2.62-1.36-3.49-.9-.87-2.18-1.58-3.83-2.12Z" fill="currentColor"/>
<path d="M77.04.4l-6.84,18.18h3.15l1.65-4.65h7.35l1.63,4.65h3.15L80.3.4h-3.25ZM75.95,11.3l1.93-5.41.71-2.11h.15l.71,2.11,1.93,5.41h-5.44,0Z" fill="currentColor"/>
<path d="M110.29.4l-4.91,13.26h-.15l-3.87-13.26h-2.85l-4.04,13.28h-.15L89.41.4h-3.18l6.64,18.18h2.95l4.04-13.48h.15l3.84,13.48h3.03L113.47.4h-3.18Z" fill="currentColor"/>
<path d="M5.48,2.91h6.27v8.52c0,1.51-.41,2.78-1.18,3.67-.6.7-1.45,1.14-2.48,1.29-1.01.12-1.7,0-1.7,0-1-.14-1.8-.54-2.39-1.21h0l-.15-.17c-.71-.88-1.09-2.13-1.09-3.59v-.25H0v.25c0,1.49.31,2.83.91,3.98.6,1.15,1.46,2.07,2.57,2.71.9.53,1.84.83,2.92.93,0,0,.58.08,1.7,0,1.11-.1,2.14-.41,3.01-.91,1.09-.64,1.94-1.55,2.52-2.72.57-1.15.86-2.5.86-3.99V.37H5.48v2.53Z" fill="currentColor"/>
<path d="M19.02,2.91h4.44v13.15h-4.44v2.53h11.72v-2.53h-4.43V2.91h4.43V.37h-11.72v2.53Z" fill="currentColor"/>
<path d="M128.32,19.4c-1.54,0-2.92-.45-4.14-1.35-1.23-.9-2.07-2.16-2.54-3.79l2.75-1.12c.28,1.02.76,1.86,1.45,2.52.71.64,1.55.96,2.54.96.92,0,1.69-.23,2.33-.7.64-.48.96-1.14.96-1.97,0-.76-.28-1.38-.85-1.87-.55-.5-1.53-1-2.93-1.5l-1.17-.41c-1.24-.43-2.29-1.05-3.13-1.87-.85-.81-1.27-1.88-1.27-3.22,0-.92.25-1.76.75-2.54.5-.78,1.19-1.39,2.07-1.84.9-.47,1.91-.7,3.03-.7,1.62,0,2.92.4,3.88,1.19.97.78,1.61,1.66,1.94,2.65l-2.61,1.12c-.19-.59-.55-1.11-1.09-1.56-.54-.45-1.23-.67-2.07-.67s-1.56.22-2.15.65c-.57.43-.85.99-.85,1.66s.26,1.17.78,1.58c.52.41,1.33.81,2.44,1.19l1.17.39c1.59.55,2.81,1.28,3.68,2.18.88.88,1.32,2.07,1.32,3.55,0,1.21-.31,2.23-.93,3.06-.62.81-1.42,1.42-2.38,1.82-.95.4-1.93.6-2.95.6Z" fill="currentColor"/>
<path d="M143.48,19.4c-1.29,0-2.46-.3-3.5-.91-1.02-.61-1.82-1.43-2.41-2.49-.57-1.07-.85-2.27-.85-3.6,0-1.26.28-2.43.83-3.5.57-1.09,1.36-1.95,2.36-2.59,1-.64,2.14-.96,3.42-.96s2.48.29,3.45.88c.98.59,1.73,1.39,2.23,2.41.52,1.02.78,2.17.78,3.45,0,.24-.03.54-.08.91h-10.13c.1,1.23.54,2.18,1.29,2.85.78.66,1.68.99,2.69.99.81,0,1.51-.18,2.1-.54.6-.38,1.09-.89,1.45-1.53l2.41,1.14c-.62,1.09-1.43,1.95-2.43,2.57-1,.62-2.2.93-3.6.93ZM146.87,10.81c-.03-.47-.18-.93-.44-1.37-.26-.47-.66-.86-1.19-1.17-.52-.31-1.16-.47-1.92-.47-.92,0-1.69.28-2.33.83-.62.54-1.05,1.26-1.29,2.18h7.17Z" fill="currentColor"/>
<path d="M152.37,5.76h2.72v1.74h.13c.38-.62.94-1.13,1.68-1.53.76-.41,1.56-.62,2.41-.62,1.61,0,2.82.48,3.65,1.43.85.93,1.27,2.21,1.27,3.84v8.38h-2.85v-7.99c0-1.04-.26-1.8-.78-2.28-.5-.48-1.2-.73-2.1-.73-.64,0-1.21.18-1.71.54-.5.35-.89.81-1.17,1.4-.28.59-.41,1.22-.41,1.89v7.16h-2.85V5.76Z" fill="currentColor"/>
<path d="M172.13,19.4c-1.52,0-2.76-.33-3.73-.99-.97-.67-1.65-1.53-2.05-2.57l2.54-1.12c.31.69.74,1.22,1.3,1.58.57.36,1.22.54,1.94.54s1.3-.12,1.79-.36c.48-.26.72-.64.72-1.14s-.21-.86-.62-1.14c-.41-.28-1.05-.52-1.92-.73l-1.58-.39c-1.05-.26-1.93-.72-2.62-1.37-.69-.66-1.04-1.49-1.04-2.49,0-.78.22-1.46.67-2.05.47-.59,1.09-1.04,1.86-1.35.78-.33,1.62-.49,2.54-.49,1.23,0,2.31.25,3.24.75.93.48,1.61,1.19,2.02,2.13l-2.49,1.09c-.5-1.02-1.42-1.53-2.75-1.53-.64,0-1.17.13-1.61.39-.43.26-.65.6-.65,1.01s.16.73.49.99c.33.24.81.45,1.45.62l1.94.49c1.29.33,2.27.83,2.93,1.5.67.66,1.01,1.47,1.01,2.44,0,.83-.24,1.56-.72,2.2-.47.62-1.11,1.11-1.94,1.45-.83.35-1.74.52-2.75.52Z" fill="currentColor"/>
<path d="M186.17,19.4c-1.29,0-2.46-.3-3.5-.91-1.02-.61-1.82-1.43-2.41-2.49-.57-1.07-.85-2.27-.85-3.6,0-1.26.28-2.43.83-3.5.57-1.09,1.36-1.95,2.36-2.59,1-.64,2.14-.96,3.42-.96s2.48.29,3.45.88c.98.59,1.73,1.39,2.23,2.41.52,1.02.78,2.17.78,3.45,0,.24-.03.54-.08.91h-10.13c.1,1.23.54,2.18,1.29,2.85.78.66,1.68.99,2.69.99.81,0,1.51-.18,2.1-.54.6-.38,1.09-.89,1.45-1.53l2.41,1.14c-.62,1.09-1.43,1.95-2.43,2.57-1,.62-2.2.93-3.6.93ZM189.56,10.81c-.03-.47-.18-.93-.44-1.37-.26-.47-.66-.86-1.19-1.17-.52-.31-1.16-.47-1.92-.47-.92,0-1.69.28-2.33.83-.62.54-1.05,1.26-1.29,2.18h7.17Z" fill="currentColor"/>
<path d="M195.06,5.76h2.72v1.74h.13c.4-.64.96-1.16,1.68-1.56.72-.4,1.5-.6,2.33-.6.95,0,1.78.22,2.49.67.71.43,1.22,1.01,1.53,1.74.45-.73,1.04-1.31,1.79-1.74.76-.45,1.65-.67,2.67-.67,1.52,0,2.67.47,3.44,1.4.79.92,1.19,2.17,1.19,3.76v8.48h-2.85v-7.99c0-2.01-.85-3.01-2.56-3.01-.92,0-1.67.37-2.25,1.12-.59.74-.88,1.66-.88,2.75v7.13h-2.85v-7.99c0-2.01-.88-3.01-2.64-3.01-.9,0-1.64.37-2.23,1.12-.57.74-.85,1.66-.85,2.75v7.13h-2.85V5.76Z" fill="currentColor"/>
<path d="M222.29,19.4c-.95,0-1.8-.18-2.54-.54-.74-.38-1.32-.91-1.74-1.58-.41-.69-.62-1.47-.62-2.33,0-1.37.51-2.45,1.53-3.24,1.04-.8,2.34-1.19,3.91-1.19.78,0,1.48.08,2.1.23.62.14,1.11.29,1.48.47v-.67c0-.81-.3-1.47-.91-1.97-.6-.52-1.38-.78-2.33-.78-.67,0-1.31.15-1.92.44-.59.29-1.06.7-1.42,1.22l-1.99-1.53c.59-.81,1.35-1.44,2.28-1.89.93-.45,1.97-.67,3.11-.67,1.92,0,3.39.48,4.43,1.43,1.04.93,1.55,2.26,1.55,3.97v8.25h-2.8v-1.58h-.13c-.38.57-.92,1.05-1.61,1.43-.69.38-1.48.57-2.38.57ZM222.78,17.04c.69,0,1.31-.16,1.87-.49.55-.33.98-.77,1.29-1.32.31-.55.47-1.15.47-1.79-.4-.22-.86-.41-1.4-.54-.52-.14-1.06-.21-1.63-.21-1.07,0-1.86.22-2.36.65-.5.41-.75.96-.75,1.63,0,.61.23,1.11.7,1.5.47.38,1.07.57,1.81.57Z" fill="currentColor"/>
<path d="M232.31.41h2.85v10.81h.08l5.41-5.47h3.57v.16l-5.13,5.11,5.28,7.81v.16h-3.39l-3.88-5.99-1.94,1.89v4.1h-2.85V.41Z" fill="currentColor"/>
<path d="M247.78,3.84c-.54,0-.99-.18-1.37-.54-.36-.38-.54-.84-.54-1.37s.18-.99.54-1.35c.38-.38.84-.57,1.37-.57s.98.19,1.35.57c.38.36.57.81.57,1.35s-.19.99-.57,1.37c-.36.36-.81.54-1.35.54ZM246.35,5.76h2.85v13.23h-2.85V5.76Z" fill="currentColor"/>
<path d="M252.75,5.76h2.72v1.74h.13c.38-.62.94-1.13,1.68-1.53.76-.41,1.56-.62,2.41-.62,1.61,0,2.82.48,3.65,1.43.85.93,1.27,2.21,1.27,3.84v8.38h-2.85v-7.99c0-1.04-.26-1.8-.78-2.28-.5-.48-1.2-.73-2.1-.73-.64,0-1.21.18-1.71.54-.5.35-.89.81-1.17,1.4-.28.59-.41,1.22-.41,1.89v7.16h-2.85V5.76Z" fill="currentColor"/>
<path d="M273.65,25c-1.62,0-2.97-.37-4.04-1.12-1.05-.74-1.76-1.63-2.12-2.65l2.67-1.12c.28.69.72,1.24,1.32,1.66.62.43,1.35.65,2.18.65,1.21,0,2.15-.36,2.82-1.09.69-.71,1.04-1.71,1.04-3.01v-1.22h-.16c-.43.62-1.01,1.12-1.73,1.48-.71.35-1.53.52-2.46.52-1.1,0-2.13-.29-3.08-.86-.95-.57-1.71-1.37-2.28-2.41-.55-1.05-.83-2.26-.83-3.6s.28-2.54.83-3.58c.57-1.05,1.33-1.87,2.28-2.44.95-.59,1.98-.88,3.08-.88.92,0,1.74.18,2.46.54.72.36,1.3.86,1.73,1.48h.16v-1.61h2.72v12.5c0,1.43-.28,2.65-.83,3.66-.55,1.02-1.33,1.79-2.33,2.31-.98.52-2.12.78-3.42.78ZM273.68,16.52c.69,0,1.33-.16,1.92-.49.59-.35,1.05-.84,1.4-1.48.34-.66.52-1.43.52-2.31,0-1.35-.37-2.39-1.11-3.14-.72-.76-1.63-1.14-2.72-1.14-.71,0-1.36.17-1.94.52-.59.33-1.05.81-1.4,1.45-.35.64-.52,1.41-.52,2.31s.17,1.67.52,2.31c.35.64.81,1.13,1.4,1.48.59.33,1.24.49,1.94.49Z" fill="currentColor"/>
</svg>
