<svg xmlns="http://www.w3.org/2000/svg" fill="none" viewBox="0 0 188 86"><path fill="#ed1844" fill-rule="evenodd" d="M67.664 49.036c-3.706 3.566-3.556 8.319-3.556 13.405 0 5.089-.148 9.843 3.56 13.406 2.571 2.473 5.684 3.803 9.786 3.803 3.854 0 7.214-.809 10.23-3.803 2.288-2.242 3.266-4.91 3.497-9.075h-8.54v.519c0 1.283-.347 2.663-1.333 3.613-.79.809-2.025 1.33-3.854 1.33-1.582 0-2.768-.616-3.412-1.425-.787-.998-1.283-2.186-1.283-8.368 0-6.18.493-7.319 1.283-8.32.644-.808 1.83-1.472 3.412-1.472 2.964 0 4.35 1.236 5.04 3.803h8.699c-.843-5.561-4.7-11.22-13.742-11.22-4.252 0-7.217 1.332-9.787 3.803" clip-rule="evenodd"/><path fill="#253186" fill-rule="evenodd" d="M77.451 59.875v6.897h13.73a41 41 0 0 0 .058-2.19v-4.707z" clip-rule="evenodd"/><path fill="#ed1844" fill-rule="evenodd" d="M33.022 45.517v33.848h8.648V45.517zm19.92 19.972a11.9 11.9 0 0 1-3.212 1.035q-.48.092-.984.149-.892.1-1.788.1h-2.37l6.226 12.592h10.03l-7.566-14.038c-.109.056-.224.106-.336.162" clip-rule="evenodd"/><path fill="#253186" fill-rule="evenodd" d="M44.586 45.522H41.67v7.458h4.894c2.253 0 3.613 1.505 3.743 3.164q.01.129.011.259c0 1.76-1.383 3.423-3.754 3.423H41.67v6.942l5.288.004q.93-.001 1.788-.1a14 14 0 0 0 2.424-.488q.378-.115.74-.248a13 13 0 0 0 1.032-.447c.111-.056.227-.106.336-.162.83-.435 1.57-.954 2.224-1.542a10.57 10.57 0 0 0 3.46-7.641l.005-.26c0-3.34-1.557-5.78-3.465-7.381a11 11 0 0 0-2.224-1.54c-1.732-.908-3.845-1.446-6.32-1.446zM13.395 52.649c1.582 0 2.816.664 3.46 1.473.79.998 1.283 2.14 1.283 8.32s-.493 7.272-1.283 8.272c-.644.806-1.878 1.52-3.46 1.52v7.416c4.299 0 7.265-1.33 9.834-3.803 3.706-3.565 3.56-8.317 3.56-13.406 0-5.086.148-9.841-3.56-13.406-2.569-2.47-5.533-3.803-9.834-3.803z" clip-rule="evenodd"/><path fill="#ed1844" fill-rule="evenodd" d="M3.56 49.036C-.144 52.602 0 57.355 0 62.44c0 5.089-.147 9.843 3.56 13.406 2.572 2.473 5.536 3.803 9.835 3.803v-7.416c-1.582 0-2.816-.714-3.46-1.52-.79-.998-1.284-2.091-1.284-8.273 0-6.18.494-7.319 1.284-8.32.643-.808 1.878-1.472 3.46-1.472v-7.417c-4.299 0-7.266 1.332-9.834 3.803" clip-rule="evenodd"/><path fill="#253186" fill-rule="evenodd" d="M137.082 35.66c0 2.872 2.427 5.25 5.459 5.25 3.034 0 5.459-2.378 5.459-5.25 0-2.919-2.427-5.251-5.459-5.251-3.034 0-5.459 2.335-5.459 5.25" clip-rule="evenodd"/><path fill="#ed1844" fill-rule="evenodd" d="M114.963 19.28v7.264h14.814V19.28z" clip-rule="evenodd"/><path fill="#253186" fill-rule="evenodd" d="M106.507 19.28v.065l-.051 20.67v.008h8.507V19.28z" clip-rule="evenodd"/><path fill="#ed1844" fill-rule="evenodd" d="M114.963 40.014h15.094l.229-7.449h-15.323zm-8.368-33.838-.049 7.448h23.74V6.176zM73.106 40.023h8.507V6.176h-8.507z" clip-rule="evenodd"/><path fill="#253186" fill-rule="evenodd" d="M92.98 6.176 82.847 23.1 92.98 40.023h9.829L92.103 23.1 102.81 6.176z" clip-rule="evenodd"/><path fill="#ed1844" fill-rule="evenodd" d="M60.755 40.023h9.044l-1.92-5.08H59.11zm-12.44-5.08h-8.866l-1.923 5.08h9.045z" clip-rule="evenodd"/><path fill="#253186" fill-rule="evenodd" d="m42.057 28.042-2.608 6.902h28.43l-2.61-6.902z" clip-rule="evenodd"/><path fill="#ed1844" fill-rule="evenodd" d="m48.81 6.176 8.04 21.866h8.419L56.998 6.176z" clip-rule="evenodd"/><path fill="#253186" fill-rule="evenodd" d="m34.837 6.176-8.65 15.073v18.774h8.65z" clip-rule="evenodd"/><path fill="#ed1844" fill-rule="evenodd" d="m26.337 6.176-.15.261-8.697 15.396-4.15 7.342 4.15 7.233 8.697-15.159 8.65-15.073zm-26.195 0v33.847H8.79V21.25z" clip-rule="evenodd"/><path fill="#253186" fill-rule="evenodd" d="M.142 6.176 8.79 21.249l4.55 7.926 4.15-7.342-8.7-15.395-.148-.262z" clip-rule="evenodd"/></svg>