<svg xmlns="http://www.w3.org/2000/svg" fill="none" viewBox="0 0 283 86"><path fill="#0c74c3" d="M20.78 21.43s1.344-.967-2.847-3.92c-4.187-2.952-7.57-3.222-7.57-3.222l39.76-7.444 26.124 9.804S56.22 12.03 44.701 14.313c-9.719 1.926-10.659 4.859-10.659 4.859L20.78 21.427z"/><path fill="#9dc8ee" d="M10.363 14.288S22.444.382 42.849.006c19.6-.362 33.398 16.645 33.398 16.645S58.903 12.14 43.44 12.038c-21.91-.147-33.077 2.252-33.077 2.252z"/><path fill="#1571bc" d="M12.292 39.471s-.658-2.982-5.277-3.74C2.396 34.974.65 35.505.65 35.505l12.341-8.713 27.707-6.434 33.614-.913s-23.492-.295-36.831 4.962c-10.85 4.273-12.353 8.892-12.353 8.892l-12.836 6.175z"/><path fill="#28abe1" d="M3.007 26.533s29.747-12.51 71.308-7.087c-.7.107-25.504-.144-39.681 3.383S.652 35.505.652 35.505c.33-3.276 1.029-6.319 2.355-8.972"/><path fill="#1472b8" d="M30.714 48.673s3.588-9.368 14.962-15.966c14.855-8.615 25.416-10.746 25.308-10.78-2.053-.635-48.346 16.19-48.346 16.19L3.579 60.987s3.94-1.968 8.987-2.131c5.047-.16 5.475.268 6.335 1.771.86 1.504 11.813-11.957 11.813-11.957z"/><path fill="#1d8dcd" d="M0 46.669c-.011-.227 14.332-9.293 31.859-16.325 16.869-6.766 39.52-8.447 39.52-8.447S54.823 25.46 33.506 37.575C22.975 43.562 3.58 60.987 3.58 60.987S.36 54.257 0 46.669"/><path fill="#1472b8" d="M35.69 76.38s-2.72-2.676-6.123-1.791c-5.193 1.352-8.59 5.655-8.59 5.655l10.981-27.386C46.5 42.274 65.885 26.173 70.048 25.773c0 0-14.717 7.393-25.516 27.336-6.98 12.886-3.831 20.029-3.831 20.029l-4.69 3.383-.36-.028.053.216"/><path fill="#085693" d="M9.575 70.548c-.15-.172 11.443-14.064 26.256-25.775C51.904 32.063 70.984 25.23 70.984 25.23s-11.346 5.976-30.706 27.24C32.124 61.429 20.974 80.25 20.974 80.25s-5.443-2.864-11.402-9.7z"/><path fill="#1472b8" d="M62.645 77.452s-4.591-2.109-8.019.788-4.51 7.16-4.51 7.16l-3.652-5.656 16.181-39.09 12.28-14.376S64.349 41.301 61.858 54.044s10.31 7.803 10.31 7.803l-9.522 15.608z"/><path fill="#1d8dcd" d="M74.456 26.58S48.81 50.605 42.296 62.206c-6.515 11.598-11.51 21.98-11.51 21.98s3.364 2.648 19.33 1.216c.5.144 2.791-16.537 9.522-31.574 6.73-15.034 15.288-27.55 15.288-27.55z"/><path fill="#2da8e1" d="M79.757 22.826S68.353 45.444 67.156 49.458c-1.197 4.016-3.723 8.306-7.518 33.006.293.732 19.616-9.88 23.646-25.181 6.283-23.854-3.53-34.46-3.53-34.46z"/><path fill="#085796" d="M95.4 30.181h5.53c2.706 0 4.439 1.753 4.439 4.168 0 2.035-1.243 3.337-2.836 3.848l3.268 6.252h-2.505l-2.996-6.003h-2.725v6.003h-2.176V30.18zm5.378 6.413c1.443 0 2.416-.813 2.416-2.245 0-1.431-.973-2.233-2.416-2.233h-3.206v4.48h3.206zM108.515 30.181h2.145l4.138 8.317 4.149-8.317h2.144v14.271h-2.175v-9.539l-3.306 6.383h-1.614l-3.306-6.383v9.54h-2.175zM125.738 43.117c-1.382-1.382-1.443-2.816-1.443-5.802s.061-4.42 1.443-5.801c.92-.924 2.125-1.454 3.687-1.454 2.996 0 4.79 1.965 5.18 4.378h-2.214c-.362-1.543-1.382-2.446-2.946-2.446-.844 0-1.535.279-2.085.832-.821.82-.892 2.015-.892 4.489s.069 3.667.892 4.488c.55.55 1.244.832 2.115.832s1.592-.31 2.145-.87c.641-.642.851-1.462.851-2.386v-.79h-3.046v-1.855h5.21v2.175c0 1.764-.301 3.057-1.412 4.16-1.042 1.053-2.366 1.504-3.798 1.504-1.564 0-2.767-.53-3.687-1.454M142.632 30.181h5.531c2.706 0 4.439 1.753 4.439 4.168 0 2.035-1.244 3.337-2.836 3.848l3.267 6.252h-2.504l-2.996-6.003h-2.726v6.003h-2.175V30.18zm5.381 6.413c1.443 0 2.416-.813 2.416-2.245 0-1.431-.973-2.233-2.416-2.233h-3.206v4.48h3.206zM155.747 30.181h9.13v1.935h-6.954v4.168h5.931v1.943h-5.931v4.29h6.954v1.935h-9.13zM166.558 42.686l1.432-1.432c1.042 1.042 2.214 1.382 3.656 1.382 1.084 0 1.894-.27 2.375-.76.37-.362.561-.851.561-1.443 0-.431-.08-.763-.21-1.03-.271-.52-.782-.852-1.733-1.001l-1.855-.282c-1.584-.24-2.775-.84-3.358-2.015-.26-.531-.39-1.142-.39-1.863 0-1.164.381-2.134 1.103-2.856.843-.832 2.114-1.324 3.767-1.324 1.794 0 3.107.481 4.329 1.614l-1.374 1.383c-.802-.772-1.694-1.103-3.027-1.103-.973 0-1.683.282-2.125.71-.371.382-.572.893-.572 1.473 0 .37.069.683.19.923.321.642 1.092.951 1.905 1.073l1.832.282c1.615.24 2.665.832 3.257 2.015.259.542.411 1.202.411 1.954 0 1.133-.4 2.073-1.091 2.775-.924.912-2.344 1.413-4.039 1.413-2.134 0-3.676-.5-5.05-1.885zM179.635 30.181h9.129v1.935h-6.954v4.168h5.932v1.943h-5.932v4.29h6.954v1.935h-9.129zM195.235 30.181h1.733l5.23 14.271h-2.294l-.982-2.866h-5.633l-.992 2.866h-2.294l5.229-14.27zm3.046 9.558-2.175-6.324-2.184 6.324zM204.224 30.181h5.531c2.706 0 4.439 1.753 4.439 4.168 0 2.035-1.244 3.337-2.836 3.848l3.267 6.252h-2.504l-2.996-6.003h-2.726v6.003h-2.175V30.18zm5.382 6.413c1.442 0 2.415-.813 2.415-2.245 0-1.431-.973-2.233-2.415-2.233h-3.207v4.48h3.207zM218.061 43.117c-1.382-1.382-1.443-2.816-1.443-5.802s.061-4.42 1.443-5.801c.92-.924 2.125-1.454 3.698-1.454 2.626 0 4.588 1.553 5.092 4.389h-2.214c-.332-1.454-1.302-2.455-2.878-2.455-.821 0-1.523.28-2.073.832-.813.821-.893 2.015-.893 4.49 0 2.473.08 3.667.893 4.488.55.55 1.252.832 2.073.832 1.573 0 2.546-1 2.878-2.454h2.214c-.501 2.836-2.466 4.389-5.092 4.389-1.573 0-2.775-.53-3.698-1.454M229.722 30.181h2.176v6.092h5.771v-6.092h2.175v14.271h-2.175V38.22h-5.771v6.233h-2.176zM243.269 42.913h2.316v1.91l-2.316 1.904zM253.82 30.181h2.175v14.271h-2.175zM259.481 34.28h2.015v1.031c.29-.331.652-.591 1.003-.77a3.8 3.8 0 0 1 1.703-.382c1.003 0 1.863.301 2.526.962.741.74 1.001 1.724 1.001 2.835v6.493h-2.046v-6.202c0-1.584-.901-2.256-2.065-2.256s-2.095.68-2.095 2.256v6.202h-2.045V34.278zM271.756 43.388c-.852-.843-1.363-2.153-1.363-4.019s.511-3.187 1.363-4.03c.79-.79 1.874-1.183 3.156-1.183 1.404 0 2.386.42 3.348 1.443l-1.393 1.352c-.642-.691-1.153-.962-1.955-.962-.691 0-1.232.21-1.672.652-.622.622-.802 1.534-.802 2.725s.18 2.096.802 2.717c.44.45.981.653 1.672.653.802 0 1.313-.271 1.955-.962l1.393 1.362c-.962 1.023-1.944 1.432-3.348 1.432-1.282 0-2.366-.39-3.156-1.183zM280.565 42.006H283v2.446h-2.435z"/></svg>