<svg xmlns="http://www.w3.org/2000/svg" id="Capa_1" viewBox="0 0 239 239"><defs><linearGradient id="Degradado_sin_nombre" x1="119.5" x2="119.5" y1="-632.6" y2="-706" data-name="Degradado sin nombre" gradientTransform="matrix(1 0 0 -1 0 -544)" gradientUnits="userSpaceOnUse"><stop offset="0" stop-color="#fff" stop-opacity="0"/><stop offset=".8" stop-color="#fff"/></linearGradient><linearGradient id="Degradado_sin_nombre_2" x1="185.5" x2="131.6" y1="-662.9" y2="-712.7" data-name="Degradado sin nombre 2" gradientTransform="matrix(1 0 0 -1 0 -544)" gradientUnits="userSpaceOnUse"><stop offset="0" stop-color="#fff" stop-opacity="0"/><stop offset=".8" stop-color="#fff"/></linearGradient><linearGradient id="Degradado_sin_nombre_3" x1="54.8" x2="108.7" y1="-662.9" y2="-712.7" data-name="Degradado sin nombre 3" gradientTransform="matrix(1 0 0 -1 0 -544)" gradientUnits="userSpaceOnUse"><stop offset="0" stop-color="#fff" stop-opacity="0"/><stop offset=".8" stop-color="#fff"/></linearGradient><style>.st0{fill:#4969c8}.st5{fill:#bdafaa}.st6{fill:#d1d2ef}</style></defs><path d="M119.5 239c66 0 119.5-53.5 119.5-119.5S185.5 0 119.5 0 0 53.5 0 119.5 53.5 239 119.5 239" style="fill:#f0f0eb"/><path d="M146 78.6H93l16 85h21.5z" style="fill:url(#Degradado_sin_nombre);isolation:isolate;opacity:.7"/><path d="m176.1 94.2 34.2 35.1-74.8 50.6-7-14 47.7-71.8Z" style="isolation:isolate;opacity:.7;fill:url(#Degradado_sin_nombre_2)"/><path d="M64.1 94.2 30 129.3l72.3 48.6 9.5-12-47.7-71.8Z" style="isolation:isolate;opacity:.7;fill:url(#Degradado_sin_nombre_3)"/><path d="M137.5 161.6h-35v35h35z" class="st0"/><path d="M45.5 130.4c5 0 9-4 9-9s-4-9-9-9-9 4-9 9 4 9 9 9" class="st6"/><path d="M72.9 94.4H56.1v16.8h16.8z" class="st0"/><path d="M44.9 91.4H34.8l-5.1 8.8 5.1 8.8h10.1l5.1-8.8z" class="st5"/><path d="m109.3 78.7 11.1-19.2H98.2z" class="st6"/><path d="M141.7 60.4h-16.8v16.8h16.8z" class="st0"/><path d="m121.4 34.1 2.9 8.9h9.4l-7.6 5.5 2.9 8.9-7.6-5.5-7.6 5.5 2.9-8.9-7.6-5.5h9.4z" class="st5"/><path d="M202.9 114.7h-16.8v16.8h16.8z" class="st0"/><path d="m186.9 98.5 7.5-11.8 7.7 11.8-7.6 12.1z" class="st5"/><path d="M120.3 148.2h-1.5v-3h1.5zm0-6h-1.5v-3h1.5zm0-6h-1.5v-3h1.5zm0-6h-1.5v-3h1.5zm0-6h-1.5v-3h1.5zm0-6h-1.5v-3h1.5zm0-6h-1.5v-3h1.5zm0-6h-1.5v-3h1.5zm0-6h-1.5v-3h1.5zm0-6h-1.5v-3h1.5z"/><path d="m119.6 149.4-5.3-5.3c-.2-.2-.2-.5 0-.7s.5-.2.7 0l4.5 4.6 4.5-4.5c.2-.2.5-.2.7 0s.2.5 0 .7l-5.2 5.2zM151.5 154.8l-1.1-1.1 2.1-2.1 1.1 1.1zm4.2-4.2-1.1-1.1 2.1-2.1 1.1 1.1zm4.3-4.3-1.1-1.1 2.1-2.1 1.1 1.1zm4.2-4.2-1.1-1.1 2.1-2.1 1.1 1.1zm4.3-4.3-1.1-1.1 2.1-2.1 1.1 1.1zm4.5-4.3-1.1-1.1 1.3-1.3 1.1 1.1z"/><path d="M157.5 155.2h-7.3v-7.4c0-.3.2-.5.5-.5s.5.2.5.5v6.4h6.3c.3 0 .5.2.5.5s-.2.5-.5.5M90.1 154.6l-2.1-2.1 1.1-1.1 2.1 2.1zm-4.3-4.2-2.1-2.1 1.1-1.1 2.1 2.1zm-4.2-4.3-2.1-2.1 1.1-1.1 2.1 2.1zm-4.2-4.2-2.1-2.1 1.1-1.1 2.1 2.1zm-4.3-4.2-2.1-2.1 1.1-1.1 2.1 2.1zM67.6 132.3l1.1-1.1 1.3 1.3-1.1 1.1z"/><path d="M91.4 155h-7.3c-.3 0-.5-.2-.5-.5s.2-.5.5-.5h6.3v-6.4c0-.3.2-.5.5-.5s.5.2.5.5z"/><path d="m175.5 93.2-11.1 19.2h22.2z" class="st6"/></svg>