<?xml version="1.0" encoding="UTF-8"?>
<svg id="Isolation_Mode" data-name="Isolation Mode" xmlns="http://www.w3.org/2000/svg" viewBox="0 0 338.82 365.28">
  <defs>
    <style>
      .cls-1, .cls-2 {
        stroke-linejoin: round;
      }

      .cls-1, .cls-2, .cls-3, .cls-4 {
        fill: none;
        stroke: #000;
      }

      .cls-1, .cls-2, .cls-4 {
        stroke-linecap: round;
      }

      .cls-1, .cls-3, .cls-4 {
        stroke-width: 6px;
      }

      .cls-2 {
        stroke-width: 3px;
      }

      .cls-3, .cls-4 {
        stroke-miterlimit: 10;
      }
    </style>
  </defs>
  <line class="cls-2" x1="179.53" y1="102.4" x2="182.88" y2="113.51"/>
  <line class="cls-2" x1="147.33" y1="140.61" x2="143.82" y2="149.86"/>
  <circle class="cls-4" cx="168.94" cy="130.9" r="47.94"/>
  <polygon class="cls-1" points="168.94 97.62 176.5 120.9 200.97 120.9 181.17 135.28 188.74 158.56 168.94 144.17 149.14 158.56 156.7 135.28 136.9 120.9 161.38 120.9 168.94 97.62"/>
  <circle class="cls-3" cx="92.23" cy="221.75" r="12.05"/>
  <circle class="cls-3" cx="168.94" cy="215.96" r="12.05"/>
  <path class="cls-4" d="M115.75,236.94l-8.79,8.79c-1.1,1.1-2.59,1.72-4.15,1.72h-24.8c-1.86,0-3.6-.88-4.71-2.37l-14.13-19.01c-1.82-2.44-5.2-3.09-7.79-1.49h0c-2.58,1.59-3.52,4.89-2.17,7.6l5.86,11.75c1.53,3.07,3.5,5.9,5.86,8.39l8.39,8.88c1.02,1.08,1.59,2.51,1.6,4l.2,36.5"/>
  <circle class="cls-3" cx="246.37" cy="221.75" r="12.05"/>
  <path class="cls-4" d="M222.85,236.94l8.79,8.79c1.1,1.1,2.59,1.72,4.15,1.72h24.8c1.86,0,3.6-.88,4.71-2.37l14.13-19.01c1.82-2.44,5.2-3.09,7.79-1.49h0c2.58,1.59,3.52,4.89,2.17,7.6l-5.86,11.75c-1.53,3.07-3.5,5.9-5.86,8.39l-8.39,8.88c-1.02,1.08-1.59,2.51-1.6,4l-.2,36.5"/>
  <g>
    <path class="cls-4" d="M179.25,243.29h-24.8c-1.86,0-3.6-.88-4.71-2.37l-14.13-19.01c-1.82-2.44-5.2-3.09-7.79-1.49h0c-2.58,1.59-3.52,4.89-2.17,7.6l5.86,11.75c1.53,3.07,3.5,5.9,5.86,8.39l8.39,8.88c1.02,1.08,1.59,2.51,1.6,4l.2,36.5"/>
    <path class="cls-4" d="M161.17,243.29h24.8c1.86,0,3.6-.88,4.71-2.37l14.13-19.01c1.82-2.44,5.2-3.09,7.79-1.49h0c2.58,1.59,3.52,4.89,2.17,7.6l-5.86,11.75c-1.53,3.07-3.5,5.9-5.86,8.39l-8.39,8.88c-1.02,1.08-1.59,2.51-1.6,4l-.2,36.5"/>
  </g>
</svg>