<?xml version="1.0" encoding="UTF-8"?>
<svg id="Isolation_Mode" data-name="Isolation Mode" xmlns="http://www.w3.org/2000/svg" viewBox="0 0 338.82 365.28">
  <defs>
    <style>
      .cls-1, .cls-2 {
        stroke-linejoin: round;
      }

      .cls-1, .cls-2, .cls-3 {
        fill: none;
        stroke: #000;
        stroke-linecap: round;
      }

      .cls-1, .cls-3 {
        stroke-width: 6px;
      }

      .cls-2 {
        stroke-width: 5px;
      }

      .cls-3 {
        stroke-miterlimit: 10;
      }
    </style>
  </defs>
  <path class="cls-3" d="M80.98,243.88V88.59c0-9.04,7.33-16.36,16.36-16.36h149.24c8.55,0,15.48,6.93,15.48,15.48v.59"/>
  <path class="cls-3" d="M228.4,106.05v-9.34s-1.79-21.68,13.26-24.48"/>
  <path class="cls-3" d="M206.21,284.17h5.35c9.3,0,16.84-7.54,16.84-16.84v-87.62"/>
  <path class="cls-3" d="M275.59,87.55c-47.75,31.69-87.81,132.48-87.81,132.48"/>
  <path class="cls-1" d="M275.59,87.55c-30.45,3.06-51.65,22.01-51.65,22.01l4.46,12.98-8.49-7.26-13.7,22.89,5.12,7.04-7.48,1.32c-8.58,13.64-8.63,56.32-8.63,56.32l41.85-29.16-7.64-7.45s19.57-5.78,25.53-9.88c5.96-4.1,14.35-14.91,14.35-14.91l-13.42-3.35s12.11-3.35,16.58-6.15c17.14-21.62,3.12-44.39,3.12-44.39Z"/>
  <line class="cls-1" x1="107.07" y1="97.4" x2="148.73" y2="97.4"/>
  <line class="cls-1" x1="162.05" y1="229.49" x2="203.7" y2="229.49"/>
  <line class="cls-1" x1="107.07" y1="122.25" x2="199.41" y2="122.25"/>
  <line class="cls-1" x1="107.07" y1="147.1" x2="189.74" y2="147.1"/>
  <line class="cls-1" x1="107.07" y1="170.64" x2="184.74" y2="170.64"/>
  <line class="cls-1" x1="107.07" y1="195.49" x2="181.51" y2="195.49"/>
  <path class="cls-3" d="M206.21,284.17l-6.35-5.84c-4.08-3.76-6.41-9.05-6.41-14.6v-11.81c0-4.44-3.6-8.05-8.05-8.05H56.6c-5.83,0-10.56,4.73-10.56,10.56v13.56c0,8.94,7.25,16.18,16.18,16.18h143.99Z"/>
  <line class="cls-2" x1="236.86" y1="192.96" x2="236.86" y2="247.87"/>
</svg>