<svg xmlns="http://www.w3.org/2000/svg" id="Isolation_Mode" data-name="Isolation Mode" viewBox="0 0 338.82 365.28">
  <defs>
    <style>
      .cls-1 {
        stroke-width: 4px;
      }

      .cls-1, .cls-2 {
        fill: none;
        stroke: #000;
        stroke-linecap: round;
        stroke-miterlimit: 10;
      }

      .cls-2 {
        stroke-width: 6px;
      }
    </style>
  </defs>
  <path class="cls-2" d="M157.73,242.2l31.15-24.87c4.54-3.63,11.05-3.42,15.36.49h0c3.9,3.54,4.24,9.54.78,13.5l-43.66,49.88c-3.4,3.89-8.32,6.12-13.49,6.12h-64.97l-30.08,23.15"/>
  <path class="cls-2" d="M212.86,146.77s-47.51,27.79-82.05-1.49c-4.02-3.41-5.25-9.12-3.05-13.91,1.34-2.92,2.34-4.62,2.34-4.62"/>
  <path class="cls-2" d="M177.83,142.72s-84.55-13.15-65.06-58.2"/>
  <path class="cls-2" d="M155.3,110.79s-62.31-14.1-38.16-56.31c19.71,19.08,42.07,33.78,52.63,35.03,6.49,7.82,32.14,35.97,55.29,40.04"/>
  <path class="cls-2" d="M179.78,100.43l1.17-20.09c.17-2.97,2.63-5.29,5.61-5.29h0c3.72,0,7.06-2.31,8.37-5.8l3.95-18.32c.65-1.75,3.16-1.62,3.64.18,2.14,8.1,6.28,30.06,10.35,35.66,5.85,8.04,15.09,18.39,14.26,22.3"/>
  <path class="cls-2" d="M174.85,158.69l-54.75,56.05s5.2,5.57,17.97,7.42c7.67,1.11,18.06.89,31.7-2.68,5.08-11.9,11.88-32.3,30.92-31.62,19.04.68,54.75,0,59.51-31.62,4.76-31.62-3.06-40.81,20.4-40.81-4.45-2.73-9.67-7.31-14.51-12.01-9.23-8.98-23.94-8.94-33.18.03l-20.06,19.47"/>
  <circle cx="247.91" cy="109.25" r="4.37"/>
  <path class="cls-1" d="M155.06,221.16s1.85-15.34,13.28-27.55"/>
  <path class="cls-1" d="M135.22,221.16s14.18-26.36,28.26-37.63"/>
  <path class="cls-1" d="M181.07,115.42s12.63,13.83,26.33,17.42"/>
  <path class="cls-2" d="M52.81,252.72l20.99-12.83c10.54-6.44,23.55-7.35,34.89-2.44h0c1.5.65,3.12.99,4.76.99h37.37c4.55,0,8.24,3.69,8.24,8.24h0c0,5.18-3.75,9.59-8.86,10.42l-32.3,5.27"/>
</svg>